<svg xmlns="http://www.w3.org/2000/svg" width="1024" height="1024" viewBox="0 0 1024 1024">
  <defs>
    <linearGradient id="bg" x1="164" y1="112" x2="860" y2="910" gradientUnits="userSpaceOnUse">
      <stop offset="0" stop-color="#18202b"/>
      <stop offset="0.55" stop-color="#0b1117"/>
      <stop offset="1" stop-color="#15100a"/>
    </linearGradient>
    <linearGradient id="trace" x1="186" y1="681" x2="824" y2="338" gradientUnits="userSpaceOnUse">
      <stop offset="0" stop-color="#4fd8ff"/>
      <stop offset="0.5" stop-color="#18c6a6"/>
      <stop offset="1" stop-color="#f0b45a"/>
    </linearGradient>
    <linearGradient id="bracketLeft" x1="164" y1="258" x2="306" y2="764" gradientUnits="userSpaceOnUse">
      <stop offset="0" stop-color="#b7f2ff"/>
      <stop offset="1" stop-color="#4dbce4"/>
    </linearGradient>
    <linearGradient id="bracketRight" x1="718" y1="258" x2="860" y2="764" gradientUnits="userSpaceOnUse">
      <stop offset="0" stop-color="#ffe0a6"/>
      <stop offset="1" stop-color="#d88938"/>
    </linearGradient>
    <filter id="softShadow" x="-30%" y="-30%" width="160%" height="160%" color-interpolation-filters="sRGB">
      <feDropShadow dx="0" dy="28" stdDeviation="32" flood-color="#000000" flood-opacity="0.42"/>
    </filter>
    <filter id="glow" x="-40%" y="-40%" width="180%" height="180%" color-interpolation-filters="sRGB">
      <feGaussianBlur stdDeviation="14" result="blur"/>
      <feColorMatrix in="blur" type="matrix" values="0 0 0 0 0.14  0 0 0 0 0.9  0 0 0 0 0.78  0 0 0 0.42 0" result="glowColor"/>
      <feMerge>
        <feMergeNode in="glowColor"/>
        <feMergeNode in="SourceGraphic"/>
      </feMerge>
    </filter>
    <clipPath id="tileClip">
      <rect x="64" y="64" width="896" height="896" rx="210"/>
    </clipPath>
  </defs>

  <rect width="1024" height="1024" fill="none"/>
  <g filter="url(#softShadow)">
    <rect x="64" y="64" width="896" height="896" rx="210" fill="url(#bg)"/>
    <g clip-path="url(#tileClip)" opacity="0.16">
      <path d="M166 742C304 688 377 599 480 531C608 446 699 458 858 334" fill="none" stroke="#ffffff" stroke-width="2"/>
      <path d="M154 300H870M154 512H870M154 724H870M300 154V870M512 154V870M724 154V870" fill="none" stroke="#c4d6df" stroke-width="1"/>
      <circle cx="300" cy="512" r="4" fill="#c4d6df"/>
      <circle cx="512" cy="512" r="4" fill="#c4d6df"/>
      <circle cx="724" cy="512" r="4" fill="#c4d6df"/>
    </g>
    <rect x="88" y="88" width="848" height="848" rx="188" fill="none" stroke="#ffffff" stroke-opacity="0.08" stroke-width="2"/>
  </g>

  <g filter="url(#glow)" fill="none" stroke-linecap="round" stroke-linejoin="round">
    <path d="M309 288H265C214 288 184 321 184 376V648C184 703 214 736 265 736H309" stroke="url(#bracketLeft)" stroke-width="72"/>
    <path d="M715 288H759C810 288 840 321 840 376V648C840 703 810 736 759 736H715" stroke="url(#bracketRight)" stroke-width="72"/>
    <path d="M274 641C364 477 456 420 528 510C600 600 692 552 778 383" stroke="url(#trace)" stroke-width="76"/>
  </g>

  <g fill="#071015" stroke-width="18">
    <circle cx="274" cy="641" r="39" stroke="#72e1ff"/>
    <circle cx="528" cy="510" r="39" stroke="#23d5ae"/>
    <circle cx="778" cy="383" r="39" stroke="#ffc46f"/>
  </g>

  <g opacity="0.62" fill="none" stroke="#ffffff" stroke-linecap="round">
    <path d="M238 323C223 338 216 359 216 385" stroke-width="10"/>
    <path d="M808 323C823 338 830 359 830 385" stroke-width="10"/>
    <path d="M333 595C388 512 438 483 482 495" stroke-width="9"/>
  </g>
</svg>
